<svg width="46" height="46" viewBox="0 0 46 46" fill="none" xmlns="http://www.w3.org/2000/svg">
<path d="M22.8466 3.83333C20.4056 3.86151 18.1743 4.53696 16.4415 5.73877C14.7186 6.93371 13.4422 8.78065 13.428 10.9422L13.4355 10.8075C13.4355 10.8075 13.4214 10.95 13.4205 10.9572C13.4205 10.9639 13.4167 10.9692 13.4167 10.9759C13.4166 10.9885 13.4168 11.0007 13.4167 11.0133V11.0208C13.3943 11.1901 13.2638 12.1291 13.1884 13.5252C13.1065 15.0403 13.0555 16.8397 13.4766 18.4704C13.8828 20.043 14.8464 22.1702 15.7414 24.1118C16.1782 25.0592 16.2628 25.2096 16.5762 25.8563L4.99389 30.8202C4.6377 30.9728 4.33614 31.2297 4.12896 31.5572C3.92179 31.8847 3.81874 32.2672 3.8334 32.6545V40.25C3.83346 40.7583 4.03541 41.2458 4.39484 41.6052C4.75427 41.9647 5.24176 42.1666 5.75007 42.1667H40.2501C40.7584 42.1666 41.2459 41.9647 41.6053 41.6052C41.9647 41.2458 42.1667 40.7583 42.1667 40.25V32.6357C42.1776 32.2517 42.0727 31.8732 41.8658 31.5494C41.6589 31.2257 41.3594 30.9716 41.0063 30.8202L29.4202 25.8563C29.7333 25.205 29.8195 25.0505 30.2587 24.0931C31.1536 22.1422 32.1181 20.0037 32.5235 18.4255C32.9437 16.7895 32.8935 14.9817 32.8118 13.4578C32.73 11.934 32.5647 10.7214 32.5647 10.7214C32.4663 8.63039 31.1954 6.85188 29.5025 5.69759C27.743 4.49791 25.477 3.83541 23.0113 3.83333C22.9607 3.83304 22.9085 3.83304 22.8578 3.83333H22.8466ZM22.8915 7.66667C22.9237 7.66652 22.9567 7.66648 22.9888 7.66667H23.0001C24.764 7.66667 26.3301 8.17427 27.3425 8.86458C28.355 9.5549 28.7501 10.2921 28.7501 10.9759C28.7505 11.0623 28.7567 11.1486 28.7688 11.2342C28.7688 11.2342 28.913 12.3013 28.9859 13.66C29.0588 15.0187 29.0086 16.6977 28.81 17.4709C28.5965 18.3018 27.6443 20.6045 26.7773 22.4946C25.9158 24.3725 25.1366 25.9368 25.1264 25.9574C25.1226 25.9648 25.1188 25.9723 25.1151 25.9798C25.0993 26.0118 25.0843 26.0443 25.0702 26.0772C25.0318 26.1682 25.0005 26.2621 24.9766 26.3579C24.9741 26.3666 24.9716 26.3754 24.9691 26.3841C24.9652 26.4015 24.9614 26.419 24.9579 26.4365C24.9477 26.4799 24.9389 26.5236 24.9317 26.5675C24.9228 26.6383 24.9178 26.7096 24.9167 26.7809C24.9141 26.8621 24.9166 26.9434 24.9242 27.0243C24.929 27.0681 24.9352 27.1118 24.9429 27.1553C24.9441 27.164 24.9454 27.1728 24.9467 27.1815C24.9502 27.199 24.9539 27.2165 24.9579 27.2339C24.9664 27.2766 24.9764 27.3191 24.9879 27.3612C25.0121 27.4455 25.0421 27.528 25.0777 27.6082C25.085 27.6246 25.0925 27.6408 25.1002 27.6569C25.1405 27.74 25.1868 27.8201 25.2387 27.8965C25.2484 27.9129 25.2584 27.9291 25.2686 27.9452C25.2868 27.9693 25.3055 27.993 25.3248 28.0163C25.337 28.0314 25.3495 28.0464 25.3622 28.0612C25.3816 28.0841 25.4016 28.1066 25.4221 28.1286C25.4415 28.1515 25.4615 28.174 25.482 28.196C25.4919 28.2061 25.5019 28.216 25.512 28.2259C25.5422 28.2544 25.5735 28.2818 25.6055 28.3083C25.6142 28.3158 25.6229 28.3233 25.6317 28.3307C25.6646 28.3568 25.6983 28.3818 25.7328 28.4056C25.8114 28.4604 25.894 28.5092 25.9799 28.5516C26.0119 28.5675 26.0444 28.5825 26.0772 28.5965C26.0995 28.6069 26.122 28.6169 26.1446 28.6265L38.3334 33.8486V38.3333H7.66674V33.8486L19.9229 28.5965C19.9558 28.5812 19.9883 28.565 20.0203 28.5479C20.2613 28.4277 20.4743 28.258 20.6454 28.05C20.6797 28.0077 20.7122 27.964 20.7427 27.9189C20.7733 27.8752 20.802 27.8303 20.8288 27.7842C20.8558 27.7378 20.8808 27.6904 20.9037 27.6419C21.0868 27.2476 21.1303 26.8027 21.0273 26.3804C21.0033 26.2768 20.9707 26.1753 20.9299 26.0772C20.9146 26.0443 20.8984 26.0118 20.8813 25.9798L20.8588 25.9312L20.8551 25.9237C20.8301 25.8736 20.0759 24.3601 19.2229 22.5096C18.3559 20.6288 17.4026 18.3343 17.1902 17.512C16.9928 16.7478 16.9413 15.0838 17.0142 13.7349C17.0871 12.3859 17.2314 11.3241 17.2314 11.3241C17.2445 11.2311 17.2507 11.1372 17.2501 11.0433C17.25 11.0365 17.2501 11.0276 17.2501 11.0208C17.2501 11.014 17.25 11.0089 17.2501 11.0021C17.2501 10.9934 17.2501 10.9846 17.2501 10.9759C17.2499 10.3008 17.634 9.5736 18.6239 8.88704C19.6138 8.20049 21.1491 7.68678 22.8915 7.66667Z" fill="white"/>
</svg>
