<svg width="14" height="14" viewBox="0 0 14 14" fill="none" xmlns="http://www.w3.org/2000/svg">
<path d="M9.25038 8.125V4.75M9.25038 4.75H5.87538M9.25038 4.75L4.75049 9.24992M3.40049 13H10.6005C11.4405 13 11.8606 13 12.1815 12.8365C12.4637 12.6927 12.6932 12.4632 12.837 12.181C13.0005 11.8601 13.0005 11.4401 13.0005 10.6V3.4C13.0005 2.55992 13.0005 2.13988 12.837 1.81901C12.6932 1.53677 12.4637 1.3073 12.1815 1.16349C11.8606 1 11.4405 1 10.6005 1H3.40049C2.56041 1 2.14038 1 1.8195 1.16349C1.53726 1.3073 1.30779 1.53677 1.16398 1.81901C1.00049 2.13988 1.00049 2.55992 1.00049 3.4V10.6C1.00049 11.4401 1.00049 11.8601 1.16398 12.181C1.30779 12.4632 1.53726 12.6927 1.8195 12.8365C2.14038 13 2.56041 13 3.40049 13Z" stroke="#62FF62" stroke-width="1.5" stroke-linecap="round" stroke-linejoin="round"/>
</svg>
