<svg width="885" height="390" viewBox="0 0 885 390" fill="none" xmlns="http://www.w3.org/2000/svg">
<g clip-path="url(#clip0_61_8)">
<path d="M362.582 129.323L200.176 54.5654C194.909 52.1391 189.297 50.9148 183.5 50.9148C177.703 50.9148 172.093 52.1391 166.824 54.5654L4.41762 129.323C1.73321 130.564 0 133.268 0 136.224C0 139.179 1.73321 141.883 4.41762 143.124L166.824 217.882C172.091 220.308 177.703 221.538 183.5 221.538C189.297 221.538 194.909 220.308 200.178 217.882L328.35 158.885V218.294C323.263 218.867 319.296 223.197 319.296 228.428C319.296 232.986 322.313 236.932 326.612 238.189L317.945 295.383H357.853L349.187 238.189C353.485 236.932 356.501 232.986 356.501 228.428C356.501 223.197 352.534 218.867 347.448 218.294V150.092L362.584 143.124C365.267 141.883 367.001 139.179 367.001 136.224C367.001 133.268 365.267 130.564 362.582 129.323Z" fill="#1CA9D4"/>
<path d="M183.5 248.607C175.439 248.607 167.628 246.894 160.286 243.515L80.8497 206.946V279.8C80.8497 295.795 129.18 316.085 183.5 316.085C237.82 316.085 286.152 295.794 286.152 279.8V206.946L206.711 243.515C199.373 246.894 191.564 248.607 183.5 248.607Z" fill="#1CA9D4"/>
</g>
<path d="M413.9 149C413.033 149 412.267 148.8 411.6 148.4C410.933 147.933 410.6 147.267 410.6 146.4V79.1C410.6 77.9 410.933 77.0667 411.6 76.6C412.267 76.1333 413.033 75.9 413.9 75.9C414.7 75.9 415.4 76.1333 416 76.6C416.667 77 417.267 77.5667 417.8 78.3C418.333 78.9667 418.8 79.7333 419.2 80.6L436.4 113.7L453.5 80.6C454.033 79.7333 454.533 78.9667 455 78.3C455.533 77.5667 456.133 77 456.8 76.6C457.467 76.1333 458.167 75.9 458.9 75.9C459.833 75.9 460.6 76.1333 461.2 76.6C461.867 77.0667 462.2 77.9 462.2 79.1V146.4C462.2 147.267 461.867 147.933 461.2 148.4C460.533 148.8 459.767 149 458.9 149C458.1 149 457.333 148.8 456.6 148.4C455.933 147.933 455.6 147.267 455.6 146.4V90.2L439 121.6C438.6 122.4 438.167 122.967 437.7 123.3C437.233 123.633 436.767 123.8 436.3 123.8C435.9 123.8 435.467 123.633 435 123.3C434.533 122.967 434.067 122.4 433.6 121.6L417.2 90V146.4C417.2 147.267 416.833 147.933 416.1 148.4C415.433 148.8 414.7 149 413.9 149ZM496.197 149C495.397 149 494.63 148.8 493.897 148.4C493.23 147.933 492.897 147.267 492.897 146.4V121C492.897 120.667 492.83 120.4 492.697 120.2L471.997 80.5C471.864 80.1667 471.73 79.8667 471.597 79.6C471.53 79.2667 471.497 78.9667 471.497 78.7C471.497 78.1667 471.697 77.7 472.097 77.3C472.497 76.8333 472.964 76.5 473.497 76.3C474.097 76.0333 474.664 75.9 475.197 75.9C475.73 75.9 476.197 76.0667 476.597 76.4C477.064 76.7333 477.464 77.2333 477.797 77.9L496.197 114.4L514.697 77.9C515.097 77.2333 515.497 76.7333 515.897 76.4C516.297 76.0667 516.764 75.9 517.297 75.9C517.897 75.9 518.464 76.0333 518.997 76.3C519.53 76.5 519.964 76.8333 520.297 77.3C520.697 77.7 520.897 78.1667 520.897 78.7C520.897 78.9667 520.864 79.2667 520.797 79.6C520.73 79.8667 520.63 80.1667 520.497 80.5L499.697 120.2C499.564 120.4 499.497 120.667 499.497 121V146.4C499.497 147.267 499.164 147.933 498.497 148.4C497.83 148.8 497.064 149 496.197 149ZM549.35 149.6C545.483 149.6 541.983 148.9 538.85 147.5C535.717 146.1 533.217 143.833 531.35 140.7C529.483 137.567 528.55 133.4 528.55 128.2V97.3C528.55 92.1 529.483 87.9333 531.35 84.8C533.217 81.6667 535.683 79.4 538.75 78C541.883 76.6 545.383 75.9 549.25 75.9C553.517 75.9 557.217 76.6667 560.35 78.2C563.483 79.6667 565.917 81.7 567.65 84.3C569.383 86.9 570.25 89.9 570.25 93.3C570.25 94.5 569.95 95.3667 569.35 95.9C568.75 96.3667 567.95 96.6 566.95 96.6C566.017 96.6 565.217 96.4 564.55 96C563.95 95.6 563.617 94.9667 563.55 94.1C563.283 91.5667 562.583 89.4 561.45 87.6C560.317 85.8 558.75 84.4333 556.75 83.5C554.75 82.5 552.283 82 549.35 82C544.883 82 541.417 83.2667 538.95 85.8C536.483 88.2667 535.25 92.1 535.25 97.3V128.2C535.25 133.4 536.483 137.267 538.95 139.8C541.417 142.267 544.883 143.5 549.35 143.5C553.817 143.5 557.283 142.267 559.75 139.8C562.283 137.267 563.55 133.4 563.55 128.2V116.3H550.25C549.45 116.3 548.817 116.033 548.35 115.5C547.95 114.9 547.75 114.233 547.75 113.5C547.75 112.767 547.95 112.1 548.35 111.5C548.817 110.9 549.45 110.6 550.25 110.6H567.75C568.55 110.6 569.15 110.867 569.55 111.4C570.017 111.933 570.25 112.567 570.25 113.3V128.2C570.25 133.4 569.317 137.567 567.45 140.7C565.583 143.833 563.083 146.1 559.95 147.5C556.817 148.9 553.283 149.6 549.35 149.6ZM586.549 149C585.816 149 585.116 148.8 584.449 148.4C583.849 147.933 583.549 147.267 583.549 146.4V78.5C583.549 77.6333 583.849 77 584.449 76.6C585.116 76.1333 585.816 75.9 586.549 75.9H622.149C623.016 75.9 623.649 76.2333 624.049 76.9C624.449 77.5 624.649 78.1667 624.649 78.9C624.649 79.7 624.416 80.4333 623.949 81.1C623.549 81.7 622.949 82 622.149 82H590.149V109.5H605.849C606.649 109.5 607.249 109.8 607.649 110.4C608.116 111 608.349 111.7 608.349 112.5C608.349 113.167 608.149 113.8 607.749 114.4C607.349 115 606.716 115.3 605.849 115.3H590.149V142.9H622.149C622.949 142.9 623.549 143.2 623.949 143.8C624.416 144.4 624.649 145.133 624.649 146C624.649 146.733 624.449 147.433 624.049 148.1C623.649 148.7 623.016 149 622.149 149H586.549ZM650.83 149.7C646.564 149.7 642.897 149.067 639.83 147.8C636.764 146.467 634.397 144.967 632.73 143.3C631.13 141.567 630.33 140.1 630.33 138.9C630.33 138.367 630.464 137.8 630.73 137.2C631.064 136.6 631.464 136.133 631.93 135.8C632.397 135.4 632.864 135.2 633.33 135.2C633.997 135.2 634.664 135.633 635.33 136.5C636.064 137.3 636.997 138.267 638.13 139.4C639.33 140.467 640.897 141.433 642.83 142.3C644.764 143.1 647.297 143.5 650.43 143.5C653.564 143.5 656.23 143 658.43 142C660.63 140.933 662.33 139.4 663.53 137.4C664.73 135.333 665.33 132.767 665.33 129.7C665.33 126.5 664.73 123.933 663.53 122C662.33 120.067 660.73 118.467 658.73 117.2C656.797 115.933 654.664 114.867 652.33 114C649.997 113.133 647.63 112.233 645.23 111.3C642.897 110.367 640.73 109.233 638.73 107.9C636.73 106.5 635.13 104.7 633.93 102.5C632.73 100.233 632.13 97.3667 632.13 93.9C632.13 90.3 632.797 87.3333 634.13 85C635.464 82.6 637.164 80.7333 639.23 79.4C641.364 78.0667 643.664 77.1333 646.13 76.6C648.597 76 650.997 75.7 653.33 75.7C655.197 75.7 657.097 75.8667 659.03 76.2C661.03 76.4667 662.864 76.8667 664.53 77.4C666.197 77.9333 667.53 78.6 668.53 79.4C669.597 80.1333 670.13 80.9667 670.13 81.9C670.13 82.3 669.997 82.8 669.73 83.4C669.53 83.9333 669.23 84.4333 668.83 84.9C668.43 85.3667 667.897 85.6 667.23 85.6C666.63 85.6 665.797 85.3 664.73 84.7C663.664 84.0333 662.197 83.4 660.33 82.8C658.53 82.1333 656.164 81.8 653.23 81.8C650.83 81.8 648.497 82.1333 646.23 82.8C644.03 83.4667 642.23 84.6667 640.83 86.4C639.43 88.0667 638.73 90.3667 638.73 93.3C638.73 95.9667 639.33 98.1333 640.53 99.8C641.797 101.4 643.397 102.7 645.33 103.7C647.33 104.7 649.497 105.633 651.83 106.5C654.164 107.3 656.497 108.233 658.83 109.3C661.23 110.3 663.397 111.6 665.33 113.2C667.33 114.733 668.93 116.767 670.13 119.3C671.33 121.833 671.93 125.1 671.93 129.1C671.93 133.833 671.03 137.733 669.23 140.8C667.43 143.8 664.93 146.033 661.73 147.5C658.597 148.967 654.964 149.7 650.83 149.7Z" fill="white"/>
<path d="M452.473 344.6C443.939 344.6 436.473 343.333 430.073 340.8C423.673 338.133 418.739 335.067 415.273 331.6C411.806 328 410.073 324.8 410.073 322C410.073 320.667 410.406 319.333 411.073 318C411.873 316.533 412.806 315.333 413.873 314.4C415.073 313.333 416.273 312.8 417.473 312.8C419.073 312.8 420.606 313.6 422.073 315.2C423.673 316.8 425.606 318.733 427.873 321C430.273 323.133 433.339 325 437.073 326.6C440.806 328.2 445.673 329 451.673 329C457.273 329 462.139 328.133 466.273 326.4C470.406 324.533 473.606 321.8 475.873 318.2C478.273 314.467 479.473 309.8 479.473 304.2C479.473 298.467 478.273 293.8 475.873 290.2C473.473 286.6 470.273 283.6 466.273 281.2C462.406 278.8 458.139 276.667 453.473 274.8C448.939 272.933 444.273 271.067 439.473 269.2C434.806 267.2 430.539 264.8 426.673 262C422.806 259.067 419.673 255.333 417.273 250.8C414.873 246.267 413.673 240.533 413.673 233.6C413.673 226.267 415.006 220.2 417.673 215.4C420.339 210.6 423.873 206.8 428.273 204C432.673 201.2 437.406 199.267 442.473 198.2C447.673 197 452.739 196.4 457.673 196.4C461.273 196.4 465.073 196.667 469.073 197.2C473.073 197.733 476.873 198.533 480.473 199.6C484.073 200.667 487.006 202.067 489.273 203.8C491.539 205.4 492.673 207.333 492.673 209.6C492.673 210.667 492.406 211.933 491.873 213.4C491.339 214.733 490.539 216 489.473 217.2C488.406 218.267 487.073 218.8 485.473 218.8C484.006 218.8 482.206 218.2 480.073 217C477.939 215.667 475.073 214.4 471.473 213.2C468.006 211.867 463.406 211.2 457.673 211.2C452.873 211.2 448.339 211.867 444.073 213.2C439.939 214.533 436.606 216.733 434.073 219.8C431.673 222.867 430.473 226.933 430.473 232C430.473 236.8 431.673 240.733 434.073 243.8C436.473 246.867 439.606 249.4 443.473 251.4C447.339 253.4 451.606 255.267 456.273 257C460.939 258.6 465.606 260.533 470.273 262.8C474.939 264.933 479.206 267.6 483.073 270.8C487.073 274 490.273 278.2 492.673 283.4C495.073 288.467 496.273 294.867 496.273 302.6C496.273 312.2 494.339 320.133 490.473 326.4C486.739 332.533 481.606 337.133 475.073 340.2C468.539 343.133 461.006 344.6 452.473 344.6ZM552.082 343C549.949 343 548.015 342.533 546.282 341.6C544.549 340.533 543.682 339 543.682 337V212.4H511.282C509.549 212.4 508.149 211.6 507.082 210C506.015 208.4 505.482 206.533 505.482 204.4C505.482 202.533 505.949 200.8 506.882 199.2C507.815 197.6 509.282 196.8 511.282 196.8H592.882C594.882 196.8 596.349 197.6 597.282 199.2C598.215 200.8 598.682 202.533 598.682 204.4C598.682 206.4 598.215 208.267 597.282 210C596.349 211.6 594.882 212.4 592.882 212.4H560.482V337C560.482 339 559.615 340.533 557.882 341.6C556.149 342.533 554.215 343 552.082 343ZM603.005 343C601.672 343 600.139 342.733 598.405 342.2C596.805 341.533 595.472 340.667 594.405 339.6C593.472 338.533 593.005 337.333 593.005 336C593.005 335.467 593.072 334.933 593.205 334.4L634.205 201.4C634.739 199.4 636.005 197.933 638.005 197C640.005 196.067 642.139 195.6 644.405 195.6C646.805 195.6 649.005 196.133 651.005 197.2C653.005 198.133 654.272 199.533 654.805 201.4L695.605 334.4C695.872 334.933 696.005 335.4 696.005 335.8C696.005 337.133 695.405 338.333 694.205 339.4C693.139 340.467 691.805 341.333 690.205 342C688.605 342.667 687.072 343 685.605 343C684.139 343 682.872 342.733 681.805 342.2C680.739 341.533 680.005 340.533 679.605 339.2L670.605 309.4H618.005L609.405 339.2C609.005 340.533 608.205 341.533 607.005 342.2C605.939 342.733 604.605 343 603.005 343ZM622.005 295.6H666.805L644.405 220.4L622.005 295.6ZM736.652 343C734.519 343 732.586 342.533 730.852 341.6C729.119 340.533 728.252 339 728.252 337V212.4H695.852C694.119 212.4 692.719 211.6 691.652 210C690.586 208.4 690.052 206.533 690.052 204.4C690.052 202.533 690.519 200.8 691.452 199.2C692.386 197.6 693.852 196.8 695.852 196.8H777.452C779.452 196.8 780.919 197.6 781.852 199.2C782.786 200.8 783.252 202.533 783.252 204.4C783.252 206.4 782.786 208.267 781.852 210C780.919 211.6 779.452 212.4 777.452 212.4H745.052V337C745.052 339 744.186 340.533 742.452 341.6C740.719 342.533 738.786 343 736.652 343ZM833.137 344.6C824.603 344.6 817.137 343.333 810.737 340.8C804.337 338.133 799.403 335.067 795.937 331.6C792.47 328 790.737 324.8 790.737 322C790.737 320.667 791.07 319.333 791.737 318C792.537 316.533 793.47 315.333 794.537 314.4C795.737 313.333 796.937 312.8 798.137 312.8C799.737 312.8 801.27 313.6 802.737 315.2C804.337 316.8 806.27 318.733 808.537 321C810.937 323.133 814.003 325 817.737 326.6C821.47 328.2 826.337 329 832.337 329C837.937 329 842.803 328.133 846.937 326.4C851.07 324.533 854.27 321.8 856.537 318.2C858.937 314.467 860.137 309.8 860.137 304.2C860.137 298.467 858.937 293.8 856.537 290.2C854.137 286.6 850.937 283.6 846.937 281.2C843.07 278.8 838.803 276.667 834.137 274.8C829.603 272.933 824.937 271.067 820.137 269.2C815.47 267.2 811.203 264.8 807.337 262C803.47 259.067 800.337 255.333 797.937 250.8C795.537 246.267 794.337 240.533 794.337 233.6C794.337 226.267 795.67 220.2 798.337 215.4C801.003 210.6 804.537 206.8 808.937 204C813.337 201.2 818.07 199.267 823.137 198.2C828.337 197 833.403 196.4 838.337 196.4C841.937 196.4 845.737 196.667 849.737 197.2C853.737 197.733 857.537 198.533 861.137 199.6C864.737 200.667 867.67 202.067 869.937 203.8C872.203 205.4 873.337 207.333 873.337 209.6C873.337 210.667 873.07 211.933 872.537 213.4C872.003 214.733 871.203 216 870.137 217.2C869.07 218.267 867.737 218.8 866.137 218.8C864.67 218.8 862.87 218.2 860.737 217C858.603 215.667 855.737 214.4 852.137 213.2C848.67 211.867 844.07 211.2 838.337 211.2C833.537 211.2 829.003 211.867 824.737 213.2C820.603 214.533 817.27 216.733 814.737 219.8C812.337 222.867 811.137 226.933 811.137 232C811.137 236.8 812.337 240.733 814.737 243.8C817.137 246.867 820.27 249.4 824.137 251.4C828.003 253.4 832.27 255.267 836.937 257C841.603 258.6 846.27 260.533 850.937 262.8C855.603 264.933 859.87 267.6 863.737 270.8C867.737 274 870.937 278.2 873.337 283.4C875.737 288.467 876.937 294.867 876.937 302.6C876.937 312.2 875.003 320.133 871.137 326.4C867.403 332.533 862.27 337.133 855.737 340.2C849.203 343.133 841.67 344.6 833.137 344.6Z" fill="white"/>
<defs>
<clipPath id="clip0_61_8">
<rect width="367" height="367" fill="white"/>
</clipPath>
</defs>
</svg>
