<svg width="74" height="18" viewBox="0 0 74 18" fill="none" xmlns="http://www.w3.org/2000/svg">
<path d="M58.0391 12.031L64.6894 5.38071M64.6894 5.38071H58.7041M64.6894 5.38071V11.366" stroke="#D9D9D9" stroke-width="1.33007" stroke-linecap="round" stroke-linejoin="round"/>
<path d="M10.7142 4.26201L13.0638 10.9244H13.1565L15.5061 4.26201H16.5109L13.6048 12.1765H12.6155L9.70939 4.26201H10.7142ZM19.4788 12.3001C18.9429 12.3001 18.4727 12.1726 18.0682 11.9175C17.6663 11.6625 17.352 11.3057 17.1253 10.8471C16.9012 10.3885 16.7891 9.85262 16.7891 9.23945C16.7891 8.62114 16.9012 8.0814 17.1253 7.62024C17.352 7.15908 17.6663 6.80097 18.0682 6.54592C18.4727 6.29086 18.9429 6.16333 19.4788 6.16333C20.0147 6.16333 20.4835 6.29086 20.8854 6.54592C21.2899 6.80097 21.6042 7.15908 21.8284 7.62024C22.0551 8.0814 22.1685 8.62114 22.1685 9.23945C22.1685 9.85262 22.0551 10.3885 21.8284 10.8471C21.6042 11.3057 21.2899 11.6625 20.8854 11.9175C20.4835 12.1726 20.0147 12.3001 19.4788 12.3001ZM19.4788 11.4808C19.8858 11.4808 20.2208 11.3765 20.4835 11.1678C20.7463 10.9591 20.9408 10.6848 21.0671 10.3447C21.1933 10.0046 21.2564 9.63621 21.2564 9.23945C21.2564 8.8427 21.1933 8.473 21.0671 8.13035C20.9408 7.7877 20.7463 7.51075 20.4835 7.29949C20.2208 7.08823 19.8858 6.9826 19.4788 6.9826C19.0717 6.9826 18.7368 7.08823 18.474 7.29949C18.2112 7.51075 18.0167 7.7877 17.8905 8.13035C17.7642 8.473 17.7011 8.8427 17.7011 9.23945C17.7011 9.63621 17.7642 10.0046 17.8905 10.3447C18.0167 10.6848 18.2112 10.9591 18.474 11.1678C18.7368 11.3765 19.0717 11.4808 19.4788 11.4808ZM23.5606 12.1765V6.24062H24.4726V12.1765H23.5606ZM24.0244 5.25132C23.8466 5.25132 23.6933 5.19078 23.5645 5.06969C23.4383 4.9486 23.3751 4.80304 23.3751 4.633C23.3751 4.46297 23.4383 4.3174 23.5645 4.19632C23.6933 4.07523 23.8466 4.01469 24.0244 4.01469C24.2021 4.01469 24.3541 4.07523 24.4804 4.19632C24.6092 4.3174 24.6736 4.46297 24.6736 4.633C24.6736 4.80304 24.6092 4.9486 24.4804 5.06969C24.3541 5.19078 24.2021 5.25132 24.0244 5.25132ZM26.1431 12.1765V6.24062H27.0242V7.13718H27.086C27.1942 6.84348 27.39 6.60517 27.6734 6.42225C27.9568 6.23934 28.2762 6.14788 28.6318 6.14788C28.6988 6.14788 28.7825 6.14916 28.883 6.15174C28.9834 6.15432 29.0594 6.15818 29.111 6.16333V7.09081C29.0801 7.08308 29.0092 7.07149 28.8984 7.05603C28.7902 7.03799 28.6756 7.02898 28.5545 7.02898C28.2659 7.02898 28.0083 7.08952 27.7816 7.21061C27.5575 7.32912 27.3797 7.494 27.2483 7.70526C27.1195 7.91394 27.0551 8.15225 27.0551 8.42019V12.1765H26.1431ZM33.2527 14.4024V6.24062H34.1338V7.18355H34.242C34.309 7.0805 34.4018 6.94911 34.5203 6.78938C34.6414 6.62707 34.814 6.4828 35.0381 6.35656C35.2648 6.22774 35.5714 6.16333 35.9579 6.16333C36.4577 6.16333 36.8982 6.28829 37.2795 6.53819C37.6608 6.78809 37.9584 7.14233 38.1722 7.60092C38.386 8.0595 38.4929 8.60053 38.4929 9.224C38.4929 9.85262 38.386 10.3975 38.1722 10.8587C37.9584 11.3173 37.6621 11.6728 37.2834 11.9253C36.9046 12.1752 36.468 12.3001 35.9733 12.3001C35.592 12.3001 35.2867 12.237 35.0574 12.1108C34.8281 11.9819 34.6517 11.8364 34.528 11.6741C34.4043 11.5092 34.309 11.3726 34.242 11.2644H34.1647V14.4024H33.2527ZM34.1493 9.20854C34.1493 9.65682 34.215 10.0523 34.3464 10.3949C34.4778 10.735 34.6697 11.0017 34.9222 11.1949C35.1747 11.3855 35.4838 11.4808 35.8496 11.4808C36.2309 11.4808 36.5491 11.3804 36.8042 11.1794C37.0618 10.9759 37.255 10.7028 37.3838 10.3602C37.5152 10.0149 37.5809 9.63105 37.5809 9.20854C37.5809 8.79118 37.5165 8.41503 37.3877 8.08011C37.2615 7.74262 37.0695 7.47597 36.8119 7.28017C36.5568 7.08179 36.2361 6.9826 35.8496 6.9826C35.4787 6.9826 35.1669 7.07664 34.9144 7.26471C34.662 7.4502 34.4713 7.71041 34.3425 8.04533C34.2137 8.37768 34.1493 8.76541 34.1493 9.20854ZM40.7962 4.26201V12.1765H39.8842V4.26201H40.7962ZM46.2074 9.74956V6.24062H47.1194V12.1765H46.2074V11.1717H46.1456C46.0064 11.4731 45.79 11.7295 45.4963 11.9407C45.2026 12.1494 44.8316 12.2537 44.3834 12.2537C44.0124 12.2537 43.6826 12.1726 43.3941 12.0103C43.1055 11.8454 42.8788 11.5981 42.7139 11.2683C42.549 10.936 42.4666 10.5173 42.4666 10.0123V6.24062H43.3786V9.95052C43.3786 10.3833 43.4997 10.7286 43.7419 10.9862C43.9866 11.2438 44.2984 11.3726 44.6771 11.3726C44.9038 11.3726 45.1344 11.3147 45.3688 11.1987C45.6058 11.0828 45.8042 10.905 45.9639 10.6654C46.1262 10.4258 46.2074 10.1206 46.2074 9.74956ZM52.9944 7.57L52.1751 7.80187C52.1236 7.66533 52.0476 7.53265 51.9471 7.40383C51.8492 7.27244 51.7152 7.16423 51.5452 7.07921C51.3752 6.9942 51.1575 6.95169 50.8921 6.95169C50.5288 6.95169 50.2261 7.03542 49.984 7.20288C49.7444 7.36776 49.6246 7.57773 49.6246 7.83279C49.6246 8.0595 49.707 8.23856 49.8719 8.36995C50.0368 8.50134 50.2944 8.61083 50.6448 8.69843L51.5259 8.91484C52.0566 9.04365 52.4521 9.24074 52.7123 9.5061C52.9725 9.76889 53.1026 10.1077 53.1026 10.5225C53.1026 10.8625 53.0047 11.1665 52.8089 11.4345C52.6157 11.7024 52.3451 11.9137 51.9973 12.0682C51.6495 12.2228 51.2451 12.3001 50.7839 12.3001C50.1785 12.3001 49.6774 12.1687 49.2806 11.9059C48.8839 11.6432 48.6327 11.2593 48.5271 10.7543L49.3927 10.5379C49.4751 10.8574 49.631 11.097 49.8603 11.2567C50.0922 11.4164 50.3949 11.4963 50.7684 11.4963C51.1935 11.4963 51.531 11.4061 51.7809 11.2258C52.0334 11.0429 52.1597 10.8239 52.1597 10.5688C52.1597 10.3627 52.0875 10.1901 51.9432 10.051C51.799 9.9093 51.5774 9.80367 51.2786 9.73411L50.2892 9.50224C49.7456 9.37342 49.3463 9.17376 49.0913 8.90324C48.8388 8.63016 48.7125 8.28879 48.7125 7.87916C48.7125 7.54424 48.8066 7.24796 48.9947 6.99033C49.1853 6.7327 49.4442 6.53046 49.7714 6.38361C50.1012 6.23676 50.4747 6.16333 50.8921 6.16333C51.4795 6.16333 51.9407 6.29215 52.2756 6.54978C52.6131 6.80741 52.8527 7.14749 52.9944 7.57Z" fill="#D9D9D9"/>
<rect x="0.362745" y="0.362745" width="73.2745" height="16.6863" rx="8.34314" stroke="#D9D9D9" stroke-width="0.72549"/>
</svg>
